# xmcd CD database file
#
# Track frame offsets:
#	150
#	22005
#	47220
#	64455
#	78653
#	93428
#	113178
#	130485
#	147530
#	171075
#	186650
#	204943
#
# Disc length: 2905 seconds
#
# Revision: 0
# Processed by: cddbd v1.5.1PL0 Copyright (c) Steve Scherf et al.
# Submitted via: CDex 1.51
#
DISCID=bb0b570c
DTITLE=Various artist - 愛と青春のベスト・ヒット〜男性ボーカル編〜
DYEAR=1900
DGENRE=JPop
TTITLE0=メリー・ジェーン
TTITLE1=愛のメモリー
TTITLE2=失恋レストラン
TTITLE3=夜と朝のあいだに
TTITLE4=もう恋なのか
TTITLE5=悲しい色やね
TTITLE6=メモリーグラス
TTITLE7=もしもピアノが弾けたなら
TTITLE8=学校の先生
TTITLE9=ハンダースの想い出の渚
TTITLE10=サマー・ラブ
TTITLE11=青春時代
EXTD=
EXTT0=
EXTT1=
EXTT2=
EXTT3=
EXTT4=
EXTT5=
EXTT6=
EXTT7=
EXTT8=
EXTT9=
EXTT10=
EXTT11=
PLAYORDER=
